<svg width="20" height="22" viewBox="0 0 20 22" fill="none" xmlns="http://www.w3.org/2000/svg">
<path d="M5.21669 9.6192C4.97455 9.18351 4.59459 8.84056 4.13646 8.64418C3.67832 8.4478 3.16794 8.40911 2.68544 8.53418C2.20293 8.65925 1.77562 8.941 1.47057 9.3352C1.16552 9.7294 1 10.2137 1 10.7122C1 11.2106 1.16552 11.695 1.47057 12.0892C1.77562 12.4834 2.20293 12.7651 2.68544 12.8902C3.16794 13.0153 3.67832 12.9766 4.13646 12.7802C4.59459 12.5838 4.97455 12.2409 5.21669 11.8052M5.21669 9.6192C5.39669 9.9432 5.49969 10.3152 5.49969 10.7122C5.49969 11.1092 5.39669 11.4822 5.21669 11.8052M5.21669 9.6192L14.7827 4.3052M5.21669 11.8052L14.7827 17.1192M14.7827 4.3052C14.9229 4.56934 15.1144 4.80286 15.346 4.99213C15.5776 5.18139 15.8445 5.32259 16.1313 5.40747C16.4181 5.49236 16.7189 5.51922 17.0161 5.48649C17.3134 5.45376 17.6012 5.3621 17.8626 5.21686C18.124 5.07162 18.3539 4.87572 18.5387 4.64061C18.7236 4.4055 18.8597 4.13591 18.9391 3.84758C19.0185 3.55925 19.0397 3.25799 19.0013 2.96139C18.963 2.6648 18.8659 2.37883 18.7157 2.1202C18.4198 1.61054 17.9357 1.23733 17.3675 1.08081C16.7993 0.924287 16.1924 0.996939 15.6772 1.28315C15.162 1.56936 14.7797 2.04628 14.6124 2.61139C14.4452 3.1765 14.5063 3.78468 14.7827 4.3052ZM14.7827 17.1192C14.6392 17.3776 14.5479 17.6617 14.5142 17.9553C14.4804 18.249 14.5049 18.5464 14.5861 18.8306C14.6673 19.1148 14.8037 19.3802 14.9875 19.6117C15.1712 19.8431 15.3988 20.0362 15.6572 20.1797C15.9156 20.3232 16.1997 20.4145 16.4933 20.4482C16.787 20.4819 17.0844 20.4575 17.3685 20.3763C17.6527 20.2951 17.9182 20.1587 18.1496 19.9749C18.3811 19.7911 18.5742 19.5636 18.7177 19.3052C19.0076 18.7834 19.0783 18.1678 18.9143 17.5938C18.7503 17.0199 18.365 16.5346 17.8432 16.2447C17.3214 15.9548 16.7058 15.8841 16.1318 16.0481C15.5579 16.2121 15.0726 16.5974 14.7827 17.1192Z" stroke="#333333" stroke-width="1.5" stroke-linecap="round" stroke-linejoin="round"/>
</svg>
