<svg width="195" height="32" viewBox="0 0 195 32" fill="none" xmlns="http://www.w3.org/2000/svg">
<path d="M43.1378 23V9.90909H48.3793C49.3423 9.90909 50.1456 10.0518 50.7891 10.3374C51.4325 10.6229 51.9162 11.0192 52.2401 11.5263C52.5639 12.0291 52.7259 12.6087 52.7259 13.2649C52.7259 13.7763 52.6236 14.2259 52.419 14.6136C52.2145 14.9972 51.9332 15.3125 51.5753 15.5597C51.2216 15.8026 50.8168 15.9751 50.3608 16.0774V16.2053C50.8594 16.2266 51.326 16.3672 51.7607 16.6271C52.1996 16.8871 52.5554 17.2514 52.8281 17.7202C53.1009 18.1847 53.2372 18.7386 53.2372 19.3821C53.2372 20.0767 53.0646 20.6967 52.7195 21.2422C52.3786 21.7834 51.8736 22.2116 51.2045 22.527C50.5355 22.8423 49.7109 23 48.7308 23H43.1378ZM45.9055 20.7372H48.1619C48.9332 20.7372 49.4957 20.5902 49.8494 20.2962C50.2031 19.9979 50.38 19.6016 50.38 19.1072C50.38 18.745 50.2926 18.4254 50.1179 18.1484C49.9432 17.8714 49.6939 17.6541 49.37 17.4964C49.0504 17.3388 48.669 17.2599 48.2259 17.2599H45.9055V20.7372ZM45.9055 15.3871H47.9574C48.3366 15.3871 48.6733 15.321 48.9673 15.1889C49.2656 15.0526 49.5 14.8608 49.6705 14.6136C49.8452 14.3665 49.9325 14.0703 49.9325 13.7251C49.9325 13.2521 49.7642 12.8707 49.4276 12.581C49.0952 12.2912 48.6222 12.1463 48.0085 12.1463H45.9055V15.3871ZM57.7868 23.1854C57.1603 23.1854 56.6021 23.0767 56.112 22.8594C55.622 22.6378 55.2342 22.3118 54.9487 21.8814C54.6674 21.4467 54.5268 20.9055 54.5268 20.2578C54.5268 19.7124 54.627 19.2543 54.8272 18.8835C55.0275 18.5128 55.3002 18.2145 55.6454 17.9886C55.9906 17.7628 56.3826 17.5923 56.8216 17.4773C57.2647 17.3622 57.7292 17.2812 58.215 17.2344C58.786 17.1747 59.2463 17.1193 59.5957 17.0682C59.9451 17.0128 60.1987 16.9318 60.3564 16.8253C60.514 16.7187 60.5929 16.5611 60.5929 16.3523V16.3139C60.5929 15.9091 60.465 15.5959 60.2093 15.3743C59.9579 15.1527 59.6 15.0419 59.1355 15.0419C58.6454 15.0419 58.2555 15.1506 57.9657 15.3679C57.676 15.581 57.4842 15.8494 57.3904 16.1733L54.872 15.9688C54.9998 15.3722 55.2512 14.8565 55.6262 14.4219C56.0012 13.983 56.4849 13.6463 57.0772 13.4119C57.6738 13.1733 58.3642 13.054 59.1483 13.054C59.6937 13.054 60.2157 13.1179 60.7143 13.2457C61.2172 13.3736 61.6625 13.5717 62.0502 13.8402C62.4423 14.1087 62.7512 14.4538 62.9771 14.8757C63.2029 15.2933 63.3159 15.794 63.3159 16.3778V23H60.7335V21.6385H60.6568C60.4991 21.9453 60.2882 22.2159 60.024 22.4503C59.7598 22.6804 59.4423 22.8615 59.0716 22.9936C58.7008 23.1214 58.2725 23.1854 57.7868 23.1854ZM58.5666 21.3061C58.9672 21.3061 59.3208 21.2273 59.6277 21.0696C59.9345 20.9077 60.1752 20.6903 60.35 20.4176C60.5247 20.1449 60.612 19.8359 60.612 19.4908V18.4489C60.5268 18.5043 60.4096 18.5554 60.2605 18.6023C60.1156 18.6449 59.9515 18.6854 59.7683 18.7237C59.585 18.7578 59.4018 18.7898 59.2186 18.8196C59.0353 18.8452 58.8691 18.8686 58.72 18.8899C58.4004 18.9368 58.1213 19.0114 57.8826 19.1136C57.644 19.2159 57.4586 19.3544 57.3265 19.5291C57.1944 19.6996 57.1284 19.9126 57.1284 20.1683C57.1284 20.5391 57.2626 20.8224 57.5311 21.0185C57.8038 21.2102 58.149 21.3061 58.5666 21.3061ZM65.4284 23V13.1818H68.1515V23H65.4284ZM66.7963 11.9162C66.3915 11.9162 66.0442 11.782 65.7544 11.5135C65.4689 11.2408 65.3262 10.9148 65.3262 10.5355C65.3262 10.1605 65.4689 9.83878 65.7544 9.57031C66.0442 9.29758 66.3915 9.16122 66.7963 9.16122C67.2012 9.16122 67.5463 9.29758 67.8319 9.57031C68.1216 9.83878 68.2665 10.1605 68.2665 10.5355C68.2665 10.9148 68.1216 11.2408 67.8319 11.5135C67.5463 11.782 67.2012 11.9162 66.7963 11.9162ZM72.6083 13.1818L74.4109 16.6143L76.2582 13.1818H79.0515L76.207 18.0909L79.1282 23H76.3477L74.4109 19.6058L72.506 23H69.6935L72.6083 18.0909L69.7958 13.1818H72.6083ZM83.4157 23.1854C82.7892 23.1854 82.231 23.0767 81.7409 22.8594C81.2509 22.6378 80.8631 22.3118 80.5776 21.8814C80.2963 21.4467 80.1557 20.9055 80.1557 20.2578C80.1557 19.7124 80.2559 19.2543 80.4561 18.8835C80.6564 18.5128 80.9292 18.2145 81.2743 17.9886C81.6195 17.7628 82.0115 17.5923 82.4505 17.4773C82.8936 17.3622 83.3581 17.2812 83.8439 17.2344C84.415 17.1747 84.8752 17.1193 85.2246 17.0682C85.574 17.0128 85.8276 16.9318 85.9853 16.8253C86.1429 16.7187 86.2218 16.5611 86.2218 16.3523V16.3139C86.2218 15.9091 86.0939 15.5959 85.8382 15.3743C85.5868 15.1527 85.2289 15.0419 84.7644 15.0419C84.2743 15.0419 83.8844 15.1506 83.5946 15.3679C83.3049 15.581 83.1131 15.8494 83.0194 16.1733L80.5009 15.9688C80.6287 15.3722 80.8801 14.8565 81.2551 14.4219C81.6301 13.983 82.1138 13.6463 82.7061 13.4119C83.3027 13.1733 83.9931 13.054 84.7772 13.054C85.3226 13.054 85.8446 13.1179 86.3432 13.2457C86.8461 13.3736 87.2914 13.5717 87.6792 13.8402C88.0712 14.1087 88.3801 14.4538 88.606 14.8757C88.8319 15.2933 88.9448 15.794 88.9448 16.3778V23H86.3624V21.6385H86.2857C86.128 21.9453 85.9171 22.2159 85.6529 22.4503C85.3887 22.6804 85.0712 22.8615 84.7005 22.9936C84.3297 23.1214 83.9015 23.1854 83.4157 23.1854ZM84.1955 21.3061C84.5961 21.3061 84.9498 21.2273 85.2566 21.0696C85.5634 20.9077 85.8042 20.6903 85.9789 20.4176C86.1536 20.1449 86.2409 19.8359 86.2409 19.4908V18.4489C86.1557 18.5043 86.0385 18.5554 85.8894 18.6023C85.7445 18.6449 85.5804 18.6854 85.3972 18.7237C85.214 18.7578 85.0307 18.7898 84.8475 18.8196C84.6642 18.8452 84.498 18.8686 84.3489 18.8899C84.0293 18.9368 83.7502 19.0114 83.5115 19.1136C83.2729 19.2159 83.0875 19.3544 82.9554 19.5291C82.8233 19.6996 82.7573 19.9126 82.7573 20.1683C82.7573 20.5391 82.8915 20.8224 83.16 21.0185C83.4327 21.2102 83.7779 21.3061 84.1955 21.3061ZM91.0574 23V13.1818H93.6973V14.8949H93.7995C93.9785 14.2855 94.2789 13.8253 94.7008 13.5142C95.1227 13.1989 95.6085 13.0412 96.1582 13.0412C96.2946 13.0412 96.4416 13.0497 96.5993 13.0668C96.7569 13.0838 96.8954 13.1072 97.0147 13.1371V15.5533C96.8869 15.5149 96.7101 15.4808 96.4842 15.451C96.2583 15.4212 96.0517 15.4062 95.8642 15.4062C95.4636 15.4062 95.1056 15.4936 94.7903 15.6683C94.4792 15.8388 94.2321 16.0774 94.0488 16.3842C93.8699 16.6911 93.7804 17.0447 93.7804 17.4453V23H91.0574ZM107.063 23.1918C106.053 23.1918 105.184 22.9872 104.455 22.5781C103.731 22.1648 103.172 21.581 102.78 20.8267C102.388 20.0682 102.192 19.1712 102.192 18.1357C102.192 17.1257 102.388 16.2393 102.78 15.4766C103.172 14.7138 103.724 14.1193 104.436 13.6932C105.152 13.267 105.991 13.054 106.954 13.054C107.602 13.054 108.205 13.1584 108.763 13.3672C109.326 13.5717 109.816 13.8807 110.233 14.294C110.655 14.7074 110.983 15.2273 111.218 15.8537C111.452 16.4759 111.569 17.2045 111.569 18.0398V18.7876H103.279V17.1001H109.006C109.006 16.7081 108.921 16.3608 108.751 16.0582C108.58 15.7557 108.344 15.5192 108.041 15.3487C107.743 15.174 107.395 15.0866 106.999 15.0866C106.586 15.0866 106.219 15.1825 105.9 15.3743C105.584 15.5618 105.337 15.8153 105.158 16.1349C104.979 16.4503 104.888 16.8018 104.883 17.1896V18.794C104.883 19.2798 104.973 19.6996 105.152 20.0533C105.335 20.407 105.593 20.6797 105.925 20.8714C106.258 21.0632 106.652 21.1591 107.108 21.1591C107.41 21.1591 107.687 21.1165 107.939 21.0312C108.19 20.946 108.405 20.8182 108.584 20.6477C108.763 20.4773 108.9 20.2685 108.993 20.0213L111.512 20.1875C111.384 20.7926 111.122 21.321 110.726 21.7727C110.334 22.2202 109.827 22.5696 109.204 22.821C108.586 23.0682 107.873 23.1918 107.063 23.1918ZM113.346 23V13.1818H115.942V14.9141H116.057C116.261 14.3388 116.602 13.8849 117.079 13.5526C117.557 13.2202 118.128 13.054 118.792 13.054C119.466 13.054 120.039 13.2223 120.512 13.5589C120.985 13.8913 121.3 14.343 121.458 14.9141H121.56C121.76 14.3516 122.123 13.902 122.647 13.5653C123.175 13.2244 123.8 13.054 124.52 13.054C125.436 13.054 126.18 13.3459 126.751 13.9297C127.326 14.5092 127.613 15.3317 127.613 16.397V23H124.897V16.9339C124.897 16.3885 124.752 15.9794 124.462 15.7067C124.172 15.4339 123.81 15.2976 123.376 15.2976C122.881 15.2976 122.496 15.4553 122.219 15.7706C121.942 16.0817 121.803 16.4929 121.803 17.0043V23H119.163V16.8764C119.163 16.3949 119.025 16.0114 118.748 15.7259C118.475 15.4403 118.115 15.2976 117.667 15.2976C117.365 15.2976 117.092 15.3743 116.849 15.5277C116.611 15.6768 116.421 15.8878 116.28 16.1605C116.14 16.429 116.069 16.7443 116.069 17.1065V23H113.346ZM133.982 23V9.90909H142.649V12.1911H136.749V15.3104H142.074V17.5923H136.749V23H133.982ZM150.141 18.8196V13.1818H152.864V23H150.249V21.2166H150.147C149.925 21.7919 149.557 22.2543 149.041 22.6037C148.53 22.9531 147.906 23.1278 147.168 23.1278C146.512 23.1278 145.935 22.9787 145.436 22.6804C144.938 22.3821 144.548 21.9581 144.266 21.4084C143.989 20.8587 143.849 20.2003 143.844 19.4332V13.1818H146.567V18.9474C146.572 19.527 146.727 19.9851 147.034 20.3217C147.341 20.6584 147.752 20.8267 148.268 20.8267C148.596 20.8267 148.903 20.7521 149.188 20.603C149.474 20.4496 149.704 20.2237 149.879 19.9254C150.058 19.6271 150.145 19.2585 150.141 18.8196ZM157.765 9.90909V23H155.042V9.90909H157.765ZM162.669 9.90909V23H159.946V9.90909H162.669ZM169.067 23V9.90909H171.835V15.3104H177.454V9.90909H180.215V23H177.454V17.5923H171.835V23H169.067ZM187.138 23H182.497V9.90909H187.176C188.493 9.90909 189.626 10.1712 190.577 10.6953C191.527 11.2152 192.258 11.9631 192.769 12.9389C193.285 13.9148 193.543 15.0824 193.543 16.4418C193.543 17.8054 193.285 18.9773 192.769 19.9574C192.258 20.9375 191.523 21.6896 190.564 22.2138C189.609 22.7379 188.467 23 187.138 23ZM185.265 20.6286H187.023C187.841 20.6286 188.529 20.4837 189.087 20.1939C189.65 19.8999 190.072 19.446 190.353 18.8324C190.638 18.2145 190.781 17.4176 190.781 16.4418C190.781 15.4744 190.638 14.6839 190.353 14.0703C190.072 13.4567 189.652 13.005 189.094 12.7152C188.536 12.4254 187.847 12.2805 187.029 12.2805H185.265V20.6286Z" fill="white"/>
<path d="M3.8999 21.45V24.375C3.8999 25.1508 4.20807 25.8947 4.75661 26.4433C5.30516 26.9918 6.04914 27.3 6.8249 27.3H24.3749C25.1507 27.3 25.8946 26.9918 26.4432 26.4433C26.9917 25.8947 27.2999 25.1508 27.2999 24.375V21.45M21.4499 15.6L15.5999 21.45M15.5999 21.45L9.7499 15.6M15.5999 21.45V3.9" stroke="white" stroke-width="1.95" stroke-linecap="round" stroke-linejoin="round"/>
</svg>
